<svg width="206" height="48" viewBox="0 0 206 48" fill="none" xmlns="http://www.w3.org/2000/svg">
<path d="M23.7964 15.0952C17.4243 15.0952 12.2864 19.4568 10.3455 25.0049C9.91699 26.2244 9.78149 27.5647 9.78149 28.9343C9.78149 36.6724 16.0583 42.9492 23.7964 42.9492H30.9851C31.7981 42.9492 32.5964 42.876 33.3728 42.7405L37.6062 44.8425C38.6572 45.3662 39.8694 44.5093 39.7266 43.3411L39.3384 40.188C42.7734 37.6318 45 33.5413 45 28.9343C45 21.3208 38.9355 15.1282 31.3733 14.9231L23.7964 15.0952Z" fill="url(#paint0_linear)"/>
<path d="M39.3384 40.1843L39.7266 43.3411C39.8694 44.5093 38.6572 45.3662 37.6062 44.8425L33.3728 42.7405C32.5964 42.876 31.8018 42.9492 30.9851 42.9492H28.2861L10.3418 25.0049L10.3381 25.0085C12.0007 19.4568 17.4207 15.0952 23.7964 15.0952L31.3733 14.9231C35.0903 15.022 38.4448 16.571 40.8948 19.021C43.4326 21.5588 45 25.0635 45 28.9307C45 33.5413 42.7734 37.6318 39.3384 40.1843Z" fill="url(#paint1_linear)"/>
<path d="M44.0442 34.0283H10.7373C12.7771 39.2505 17.8564 42.9492 23.7964 42.9492H30.9851C31.7981 42.9492 32.5964 42.876 33.3728 42.7405L37.6062 44.8425C38.6572 45.3662 39.8694 44.5093 39.7266 43.3411L39.3384 40.188C41.4331 38.6279 43.0774 36.5002 44.0442 34.0283Z" fill="url(#paint2_linear)"/>
<path d="M12.572 0H19.021C25.9644 0 31.593 5.62866 31.593 12.572C31.593 13.374 31.5161 14.1614 31.3733 14.9231C30.2747 20.7422 25.1624 25.0562 19.021 25.0562H12.572C11.8433 25.0562 11.1255 25.0781 10.4297 24.9609L6.63208 26.8469C5.68726 27.3157 4.60327 26.5466 4.73145 25.4993L5.07935 22.6685C1.99585 20.376 0 16.7065 0 12.572C0 5.62866 5.62866 0 12.572 0Z" fill="url(#paint3_linear)"/>
<path d="M0.717773 16.7651C1.5564 19.1418 3.09082 21.1926 5.07935 22.6685L4.73145 25.4993C4.60327 26.5466 5.68726 27.3157 6.63208 26.8469L10.4297 24.9609C11.1255 25.0781 11.8433 25.0562 12.572 25.0562H19.021C24.4959 25.0562 29.0625 21.6467 30.7874 16.7651H0.717773Z" fill="url(#paint4_linear)"/>
<path d="M25.1001 11.2939C25.1001 12.6526 23.9978 13.7512 22.6428 13.7512C21.2842 13.7512 20.1855 12.6526 20.1855 11.2939C20.1855 9.93896 21.2842 8.83667 22.6428 8.83667C23.9978 8.83667 25.1001 9.93896 25.1001 11.2939Z" fill="url(#paint5_linear)"/>
<path d="M18.252 11.2939C18.252 12.6526 17.1533 13.7512 15.7947 13.7512C14.4397 13.7512 13.3411 12.6526 13.3411 11.2939C13.3411 9.93896 14.4397 8.83667 15.7947 8.83667C17.1533 8.83667 18.252 9.93896 18.252 11.2939Z" fill="url(#paint6_linear)"/>
<path d="M11.4075 11.2939C11.4075 12.6526 10.3088 13.7512 8.9502 13.7512C7.59521 13.7512 6.49292 12.6526 6.49292 11.2939C6.49292 9.93896 7.59521 8.83667 8.9502 8.83667C10.3088 8.83667 11.4075 9.93896 11.4075 11.2939Z" fill="url(#paint7_linear)"/>
<path d="M36.6943 29.6814C36.6943 31.0364 35.592 32.1387 34.2371 32.1387C32.8784 32.1387 31.7798 31.0364 31.7798 29.6814C31.7798 28.3228 32.8784 27.2241 34.2371 27.2241C35.592 27.2241 36.6943 28.3228 36.6943 29.6814Z" fill="url(#paint8_linear)"/>
<path d="M29.8462 29.6814C29.8462 31.0364 28.7476 32.1387 27.3926 32.1387C26.0339 32.1387 24.9353 31.0364 24.9353 29.6814C24.9353 28.3228 26.0339 27.2241 27.3926 27.2241C28.7476 27.2241 29.8462 28.3228 29.8462 29.6814Z" fill="url(#paint9_linear)"/>
<path d="M23.0017 29.6814C23.0017 31.0364 21.9031 32.1387 20.5444 32.1387C19.1895 32.1387 18.0872 31.0364 18.0872 29.6814C18.0872 28.3228 19.1895 27.2241 20.5444 27.2241C21.9031 27.2241 23.0017 28.3228 23.0017 29.6814Z" fill="url(#paint10_linear)"/>
<path d="M31.3733 14.9231C31.2451 14.9194 31.1133 14.9158 30.9851 14.9158H23.7964C17.4207 14.9158 12.041 19.1748 10.3418 25.0049L10.4297 24.9609C11.1255 25.0781 11.8433 25.144 12.572 25.144H19.021C25.1624 25.144 30.271 20.7422 31.3733 14.9231Z" fill="url(#paint11_linear)"/>
<path d="M63.8477 16.4082C65.043 16.4082 66.1855 16.6191 67.2754 17.041C68.3652 17.4512 69.2734 18.0547 70 18.8516L74.2891 15.4414L69.3848 25.9531L68.9629 20.8379C68.5762 20.3691 68.166 20 67.7324 19.7305C67.2988 19.4609 66.877 19.2617 66.4668 19.1328C66.0684 18.9922 65.7051 18.9043 65.377 18.8691C65.0605 18.834 64.8145 18.8164 64.6387 18.8164C63.6895 18.8164 62.8047 19.0566 61.9844 19.5371C61.1758 20.0176 60.4727 20.709 59.875 21.6113C59.2773 22.502 58.8027 23.5801 58.4512 24.8457C58.1113 26.1113 57.9414 27.5234 57.9414 29.082C57.9414 30.6406 58.1113 32.0645 58.4512 33.3535C58.8027 34.6426 59.2715 35.75 59.8574 36.6758C60.4551 37.6016 61.1523 38.3223 61.9492 38.8379C62.7461 39.3418 63.5957 39.5938 64.498 39.5938C65.4121 39.5938 66.1973 39.3711 66.8535 38.9258C67.5098 38.4688 68.0488 37.8945 68.4707 37.2031C68.8926 36.5117 69.1973 35.7559 69.3848 34.9355C69.584 34.1152 69.6836 33.3301 69.6836 32.5801C69.6836 32.416 69.6836 32.2637 69.6836 32.123C69.6836 31.9707 69.6719 31.8125 69.6484 31.6484C70.4102 32.1523 70.9668 32.7266 71.3184 33.3711C71.6816 34.0039 71.8633 34.6602 71.8633 35.3398C71.8633 35.9727 71.7051 36.6465 71.3887 37.3613C71.084 38.0645 70.627 38.7207 70.0176 39.3301C69.4082 39.9277 68.6582 40.4258 67.7676 40.8242C66.877 41.2109 65.8457 41.4043 64.6738 41.4043C63.7246 41.4043 62.7812 41.3047 61.8438 41.1055C60.9062 40.9062 60.0098 40.6016 59.1543 40.1914C58.2988 39.7695 57.502 39.2363 56.7637 38.5918C56.0254 37.9473 55.3867 37.1797 54.8477 36.2891C54.3086 35.3984 53.8809 34.373 53.5645 33.2129C53.2598 32.0527 53.1074 30.7578 53.1074 29.3281C53.1074 27.9336 53.248 26.6504 53.5293 25.4785C53.8223 24.2949 54.2207 23.2285 54.7246 22.2793C55.2402 21.3184 55.8379 20.4746 56.5176 19.748C57.209 19.0098 57.9473 18.3945 58.7324 17.9023C59.5293 17.4102 60.3613 17.041 61.2285 16.7949C62.1074 16.5371 62.9805 16.4082 63.8477 16.4082ZM72.4785 40.7891L75.1855 38.5918L76.4336 19.0098L72.5137 17.0586L78.7363 16.0215L78.8066 25.918C79.2051 25.3438 79.6445 24.875 80.125 24.5117C80.6055 24.1367 81.0742 23.8438 81.5312 23.6328C82 23.4219 82.4277 23.2754 82.8145 23.1934C83.2129 23.1113 83.5234 23.0703 83.7461 23.0703C84.8477 23.0703 85.7793 23.2695 86.541 23.668C87.3027 24.0547 87.918 24.5938 88.3867 25.2852C88.8672 25.9766 89.2129 26.7969 89.4238 27.7461C89.6465 28.6836 89.7578 29.7031 89.7578 30.8047C89.7578 31.4141 89.7051 32.0645 89.5996 32.7559C89.5059 33.4473 89.377 34.1445 89.2129 34.8477C89.0488 35.5391 88.8613 36.2129 88.6504 36.8691C88.4512 37.5137 88.2461 38.0996 88.0352 38.627L91.5156 40.5605L82.4102 41.5098L86.2598 38.0117C86.4238 37.1445 86.541 36.3301 86.6113 35.5684C86.6934 34.8066 86.7344 34.0977 86.7344 33.4414C86.7344 33.1133 86.7109 32.7148 86.6641 32.2461C86.6289 31.7773 86.5527 31.291 86.4355 30.7871C86.3184 30.2715 86.1602 29.7617 85.9609 29.2578C85.7617 28.7539 85.498 28.3027 85.1699 27.9043C84.8535 27.5059 84.4668 27.1836 84.0098 26.9375C83.5645 26.6914 83.0312 26.5684 82.4102 26.5684C81.8008 26.5684 81.1738 26.7031 80.5293 26.9727C79.8965 27.2422 79.3223 27.6699 78.8066 28.2559L78.9297 38.8379L81.2676 40.7891H72.4785ZM108.004 30.0488C108.004 30.6699 107.969 31.3379 107.898 32.0527C107.828 32.7676 107.723 33.4941 107.582 34.2324C107.453 34.9707 107.295 35.6973 107.107 36.4121C106.932 37.1152 106.738 37.7656 106.527 38.3633L110.271 41L103.645 40.7188L104.049 38.5566C103.346 39.4355 102.531 40.1094 101.605 40.5781C100.691 41.0352 99.6309 41.3105 98.4238 41.4043C97.4395 41.4746 96.5781 41.4043 95.8398 41.1934C95.1133 40.9941 94.5039 40.6836 94.0117 40.2617C93.5312 39.8281 93.1738 39.3008 92.9395 38.6797C92.7051 38.0469 92.5879 37.3438 92.5879 36.5703C92.5879 35.8555 92.7637 35.1641 93.1152 34.4961C93.4668 33.8164 93.9707 33.2188 94.627 32.7031C95.2949 32.1875 96.1094 31.7773 97.0703 31.4727C98.0312 31.1562 99.1211 30.998 100.34 30.998C100.902 30.998 101.547 31.0508 102.273 31.1562C103.012 31.2617 103.709 31.4844 104.365 31.8242C104.307 31.1094 104.195 30.3828 104.031 29.6445C103.879 28.8945 103.65 28.2148 103.346 27.6055C103.041 26.9961 102.643 26.5039 102.15 26.1289C101.67 25.7422 101.066 25.5488 100.34 25.5488C99.7188 25.5488 99.1152 25.6777 98.5293 25.9355C97.9434 26.1934 97.3926 26.5625 96.877 27.043C96.373 27.5234 95.916 28.1094 95.5059 28.8008C95.0957 29.4922 94.75 30.2715 94.4688 31.1387L92.9922 22.5254L95.2246 25.9531C95.7754 25.2734 96.332 24.7344 96.8945 24.3359C97.457 23.9258 98.0137 23.6152 98.5645 23.4043C99.127 23.1816 99.666 23.0352 100.182 22.9648C100.709 22.8945 101.213 22.8594 101.693 22.8594C102.596 22.9062 103.428 23.0938 104.189 23.4219C104.963 23.7383 105.631 24.2012 106.193 24.8105C106.756 25.4082 107.195 26.1465 107.512 27.0254C107.84 27.9043 108.004 28.9121 108.004 30.0488ZM104.365 35.6738C104.389 35.3457 104.406 35.0293 104.418 34.7246C104.43 34.4199 104.436 34.1211 104.436 33.8281V33.6172C104.014 33.4531 103.586 33.3301 103.152 33.248C102.73 33.1543 102.338 33.0898 101.975 33.0547C101.611 33.0078 101.301 32.9844 101.043 32.9844C100.797 32.9727 100.633 32.9668 100.551 32.9668C99.8828 32.9902 99.3027 33.1133 98.8105 33.3359C98.3184 33.5586 97.9082 33.8398 97.5801 34.1797C97.2637 34.5078 97.0234 34.877 96.8594 35.2871C96.707 35.6973 96.6309 36.1016 96.6309 36.5C96.6309 37.4023 96.8477 38.0879 97.2812 38.5566C97.7266 39.0137 98.3711 39.2422 99.2148 39.2422C99.7773 39.2422 100.311 39.1426 100.814 38.9434C101.318 38.7441 101.787 38.4805 102.221 38.1523C102.666 37.8125 103.064 37.4316 103.416 37.0098C103.779 36.5762 104.096 36.1309 104.365 35.6738ZM112.24 33.3008C112.24 32.1992 112.352 31.1035 112.574 30.0137C112.809 28.9121 113.061 27.9043 113.33 26.9902L110.289 27.1836L118.867 17.8145C118.188 19.959 117.637 21.8926 117.215 23.6152L124.053 24.1953L123.156 26.3047L116.529 26.7793C116.365 27.6348 116.236 28.3965 116.143 29.0645C116.061 29.7207 115.99 30.2773 115.932 30.7344C115.873 31.2734 115.832 31.7422 115.809 32.1406C115.809 33.3125 115.879 34.3672 116.02 35.3047C116.16 36.2422 116.377 37.0449 116.67 37.7129C116.975 38.3691 117.355 38.8789 117.812 39.2422C118.281 39.5938 118.838 39.7695 119.482 39.7695C120.08 39.7695 120.578 39.6523 120.977 39.418C121.387 39.1719 121.715 38.8613 121.961 38.4863C122.207 38.0996 122.383 37.6719 122.488 37.2031C122.594 36.7227 122.646 36.248 122.646 35.7793C122.646 35.3457 122.611 34.9238 122.541 34.5137C123.045 34.7715 123.426 35.1875 123.684 35.7617C123.953 36.3242 124.088 36.9395 124.088 37.6074C124.088 38.2988 123.971 38.9082 123.736 39.4355C123.514 39.9629 123.203 40.4082 122.805 40.7715C122.406 41.123 121.938 41.3926 121.398 41.5801C120.859 41.7676 120.279 41.8613 119.658 41.8613C119.283 41.8613 118.838 41.8203 118.322 41.7383C117.818 41.6562 117.291 41.5039 116.74 41.2812C116.189 41.0703 115.645 40.7656 115.105 40.3672C114.566 39.9688 114.086 39.4531 113.664 38.8203C113.242 38.1875 112.896 37.4199 112.627 36.5176C112.369 35.6035 112.24 34.5312 112.24 33.3008ZM125.828 21.207L127.639 24.2656L139.838 24.5117L130.943 38.5566L136.445 39.7344L139.768 36.1836L138.783 44.2344L137.342 41.5098L124.387 41.2461L135.654 26.9902L127.023 27.7109L125.828 30.084V21.207ZM157.645 21.8926L158.154 37.8008L161.793 40.3496L149.33 41.4395L153.619 37.8711L154.691 20.8379L151.018 17.9551L161.723 18.6055L157.645 21.8926ZM186.314 28.5723C186.314 30.5293 186.01 32.2812 185.4 33.8281C184.803 35.3633 183.982 36.6641 182.939 37.7305C181.896 38.7852 180.678 39.5938 179.283 40.1562C177.9 40.7188 176.424 41 174.854 41C173.822 41 172.809 40.877 171.812 40.6309C170.828 40.3848 169.891 40.0273 169 39.5586C168.121 39.0898 167.307 38.5215 166.557 37.8535C165.807 37.1738 165.162 36.4004 164.623 35.5332C164.084 34.6543 163.662 33.6934 163.357 32.6504C163.053 31.5957 162.9 30.4648 162.9 29.2578C162.9 27.3828 163.205 25.6543 163.814 24.0723C164.436 22.4785 165.291 21.1016 166.381 19.9414C167.482 18.7812 168.777 17.873 170.266 17.2168C171.766 16.5605 173.395 16.2324 175.152 16.2324C176.629 16.2324 178.041 16.5078 179.389 17.0586C180.736 17.5977 181.92 18.3945 182.939 19.4492C183.971 20.5039 184.791 21.7988 185.4 23.334C186.01 24.8574 186.314 26.6035 186.314 28.5723ZM181.586 28.9062C181.586 27.4531 181.34 26.1816 180.848 25.0918C180.355 23.9902 179.717 23.0703 178.932 22.332C178.146 21.5938 177.256 21.043 176.26 20.6797C175.264 20.3047 174.268 20.1172 173.271 20.1172C172.123 20.1172 171.057 20.3281 170.072 20.75C169.088 21.1719 168.232 21.7812 167.506 22.5781C166.779 23.3633 166.205 24.3242 165.783 25.4609C165.373 26.5859 165.168 27.8516 165.168 29.2578C165.168 30.5938 165.373 31.7832 165.783 32.8262C166.193 33.8691 166.756 34.7539 167.471 35.4805C168.186 36.1953 169.018 36.7461 169.967 37.1328C170.928 37.5078 171.947 37.6953 173.025 37.6953C174.115 37.6953 175.17 37.5078 176.189 37.1328C177.221 36.7461 178.135 36.1836 178.932 35.4453C179.74 34.6953 180.385 33.7754 180.865 32.6855C181.346 31.584 181.586 30.3242 181.586 28.9062Z" fill="#892C6E"/>
<defs>
<linearGradient id="paint0_linear" x1="27.3909" y1="19.5927" x2="27.3909" y2="38.1755" gradientUnits="userSpaceOnUse">
<stop stop-color="#DC4955"/>
<stop offset="1" stop-color="#C4237C"/>
</linearGradient>
<linearGradient id="paint1_linear" x1="36.6772" y1="33.0745" x2="18.9509" y2="15.3483" gradientUnits="userSpaceOnUse">
<stop stop-color="#8A1958" stop-opacity="0"/>
<stop offset="1" stop-color="#8A1958"/>
</linearGradient>
<linearGradient id="paint2_linear" x1="27.3903" y1="35.8572" x2="27.3903" y2="43.173" gradientUnits="userSpaceOnUse">
<stop stop-color="#8A1958" stop-opacity="0"/>
<stop offset="1" stop-color="#8A1958"/>
</linearGradient>
<linearGradient id="paint3_linear" x1="7.99438" y1="1.32221" x2="26.7558" y2="31.182" gradientUnits="userSpaceOnUse">
<stop stop-color="#76CCF8"/>
<stop offset="0.833" stop-color="#518EF8"/>
<stop offset="1" stop-color="#4981F8"/>
</linearGradient>
<linearGradient id="paint4_linear" x1="15.7526" y1="17.8824" x2="15.7526" y2="25.1198" gradientUnits="userSpaceOnUse">
<stop stop-color="#4071F7" stop-opacity="0"/>
<stop offset="1" stop-color="#30569F"/>
</linearGradient>
<linearGradient id="paint5_linear" x1="23.9998" y1="9.93617" x2="20.5121" y2="13.4239" gradientUnits="userSpaceOnUse">
<stop stop-color="#EEF4FF"/>
<stop offset="1" stop-color="#CFE7FD"/>
</linearGradient>
<linearGradient id="paint6_linear" x1="17.1544" y1="9.93617" x2="13.6667" y2="13.4239" gradientUnits="userSpaceOnUse">
<stop stop-color="#EEF4FF"/>
<stop offset="1" stop-color="#CFE7FD"/>
</linearGradient>
<linearGradient id="paint7_linear" x1="10.3091" y1="9.93617" x2="6.82131" y2="13.4239" gradientUnits="userSpaceOnUse">
<stop stop-color="#EEF4FF"/>
<stop offset="1" stop-color="#CFE7FD"/>
</linearGradient>
<linearGradient id="paint8_linear" x1="35.5943" y1="28.3227" x2="32.1065" y2="31.8105" gradientUnits="userSpaceOnUse">
<stop stop-color="#EEF4FF"/>
<stop offset="1" stop-color="#CFE7FD"/>
</linearGradient>
<linearGradient id="paint9_linear" x1="28.7488" y1="28.3227" x2="25.2611" y2="31.8105" gradientUnits="userSpaceOnUse">
<stop stop-color="#EEF4FF"/>
<stop offset="1" stop-color="#CFE7FD"/>
</linearGradient>
<linearGradient id="paint10_linear" x1="21.9034" y1="28.3227" x2="18.4157" y2="31.8105" gradientUnits="userSpaceOnUse">
<stop stop-color="#EEF4FF"/>
<stop offset="1" stop-color="#CFE7FD"/>
</linearGradient>
<linearGradient id="paint11_linear" x1="20.8568" y1="17.4117" x2="20.8568" y2="26.6154" gradientUnits="userSpaceOnUse">
<stop stop-color="#9D66D6"/>
<stop offset="1" stop-color="#453D81"/>
</linearGradient>
</defs>
</svg>
